# Blender v2.71 (sub 0) OBJ File: ''
# www.blender.org
mtllib Tile.mtl
o Cube
v 0.500000 -0.500000 -0.500000
v 0.500000 -0.500000 0.500000
v -0.500000 -0.500000 0.500000
v -0.500000 -0.500000 -0.500000
v 0.500000 0.500000 -0.500000
v 0.500000 0.500000 0.500000
v -0.500000 0.500000 0.500000
v -0.500000 0.500000 -0.500000
vt 1.000000 0.000000
vt 1.000000 0.333333
vt 0.666667 0.333333
vt 0.666667 0.666667
vt 0.333333 0.666667
vt 0.333333 0.333333
vt 0.333333 0.000000
vt 0.666667 0.000000
vt 0.000000 0.333333
vt 0.000000 0.000000
vt 0.000000 1.000000
vt 0.000000 0.666667
vt 0.333333 1.000000
vn 0.000000 -1.000000 0.000000
vn 0.000000 1.000000 -0.000000
vn 1.000000 0.000000 0.000000
vn -0.000000 -0.000000 1.000000
vn -1.000000 -0.000000 -0.000000
vn 0.000000 0.000000 -1.000000
usemtl Soil
s off
f 2/1/1 3/2/1 4/3/1
f 5/3/2 8/4/2 7/5/2
f 5/6/3 6/7/3 2/8/3
f 2/9/4 6/10/4 7/7/4
f 7/11/5 8/12/5 4/5/5
f 5/9/6 1/6/6 4/5/6
f 1/8/1 2/1/1 4/3/1
f 6/6/2 5/3/2 7/5/2
f 1/3/3 5/6/3 2/8/3
f 3/6/4 2/9/4 7/7/4
f 3/13/5 7/11/5 4/5/5
f 8/12/6 5/9/6 4/5/6
